<svg xmlns="http://www.w3.org/2000/svg" version="1.1" xmlns:xlink="http://www.w3.org/1999/xlink" xmlns:svgjs="http://svgjs.com/svgjs" width="512" height="512" x="0" y="0" viewBox="0 0 308.8 308.8" style="enable-background:new 0 0 512 512" xml:space="preserve" class=""><g>
<g>
	<path style="" d="M35.6,18.8h180c19.6,0,35.6,16,35.6,35.6v185.2c0,19.6-16,35.6-35.6,35.6h-180
		C16,275.2,0,259.2,0,239.6V54C0,34.8,16,18.8,35.6,18.8z" fill="#2e3a51" data-original="#4a566e" class=""></path>
	<path style="" d="M116.4,186.4l-52.8-52.8L0,197.2v13.2v28.8c0,19.6,16,35.6,35.6,35.6h180c19.6,0,35.6-16,35.6-35.6
		v-28.8v-39.6l-59.6-60L116.4,186.4z" fill="#1877f2" data-original="#00b594" class=""></path>
	<circle style="" cx="114.8" cy="103.6" r="22.4" fill="#ffcc03" data-original="#ffcc03" class=""></circle>
	<circle style="" cx="251.2" cy="232.4" r="57.6" fill="#ffffff" data-original="#ffffff" class=""></circle>
</g>
<g>
	<path style="" d="M224,240.8c-4.4,0-8.4-3.6-8.4-8.4s3.6-8.4,8.4-8.4h54.4c4.8,0,8.4,3.6,8.4,8.4s-3.6,8.4-8.4,8.4
		H224z" fill="#1877f2" data-original="#00b594" class=""></path>
	<path style="" d="M259.6,259.6c0,4.8-3.6,8.4-8.4,8.4s-8.4-3.6-8.4-8.4v-54c0-4.4,3.6-8.4,8.4-8.4
		c4.4,0,8.4,3.6,8.4,8.4V259.6z" fill="#1877f2" data-original="#00b594" class=""></path>
</g>
<g>
</g>
<g>
</g>
<g>
</g>
<g>
</g>
<g>
</g>
<g>
</g>
<g>
</g>
<g>
</g>
<g>
</g>
<g>
</g>
<g>
</g>
<g>
</g>
<g>
</g>
<g>
</g>
<g>
</g>
</g></svg>